<?xml version="1.0" encoding="us-ascii" standalone="no"?><svg xmlns="http://www.w3.org/2000/svg" xmlns:xlink="http://www.w3.org/1999/xlink" contentStyleType="text/css" height="625px" preserveAspectRatio="none" style="width:597px;height:625px;background:#FFFFFF;" version="1.1" viewBox="0 0 597 625" width="597px" zoomAndPan="magnify"><defs/><g><!--cluster Image Sharing App--><g id="cluster_Image Sharing App"><rect fill="none" height="415" rx="2.5" ry="2.5" style="stroke:#181818;stroke-width:1.0;" width="584" x="7" y="106.5"/><rect fill="none" height="10" style="stroke:#181818;stroke-width:1.0;" width="15" x="571" y="111.5"/><rect fill="none" height="2" style="stroke:#181818;stroke-width:1.0;" width="4" x="569" y="113.5"/><rect fill="none" height="2" style="stroke:#181818;stroke-width:1.0;" width="4" x="569" y="117.5"/><text fill="#000000" font-family="sans-serif" font-size="14" font-weight="bold" lengthAdjust="spacing" textLength="152" x="223" y="132.4951">Image Sharing App</text></g><!--entity UI Client--><g id="elem_UI Client"><rect fill="#F1F1F1" height="46.2969" rx="2.5" ry="2.5" style="stroke:#181818;stroke-width:0.5;" width="100" x="359" y="141.5"/><rect fill="#F1F1F1" height="10" style="stroke:#181818;stroke-width:0.5;" width="15" x="439" y="146.5"/><rect fill="#F1F1F1" height="2" style="stroke:#181818;stroke-width:0.5;" width="4" x="437" y="148.5"/><rect fill="#F1F1F1" height="2" style="stroke:#181818;stroke-width:0.5;" width="4" x="437" y="152.5"/><text fill="#000000" font-family="sans-serif" font-size="14" lengthAdjust="spacing" textLength="60" x="374" y="174.4951">UI Client</text></g><!--entity Posts--><g id="elem_Posts"><rect fill="#F1F1F1" height="46.2969" rx="2.5" ry="2.5" style="stroke:#181818;stroke-width:0.5;" width="79" x="288.5" y="353.5"/><rect fill="#F1F1F1" height="10" style="stroke:#181818;stroke-width:0.5;" width="15" x="347.5" y="358.5"/><rect fill="#F1F1F1" height="2" style="stroke:#181818;stroke-width:0.5;" width="4" x="345.5" y="360.5"/><rect fill="#F1F1F1" height="2" style="stroke:#181818;stroke-width:0.5;" width="4" x="345.5" y="364.5"/><text fill="#000000" font-family="sans-serif" font-size="14" lengthAdjust="spacing" textLength="39" x="303.5" y="386.4951">Posts</text></g><!--entity User Management--><g id="elem_User Management"><rect fill="#F1F1F1" height="46.2969" rx="2.5" ry="2.5" style="stroke:#181818;stroke-width:0.5;" width="169" x="405.5" y="353.5"/><rect fill="#F1F1F1" height="10" style="stroke:#181818;stroke-width:0.5;" width="15" x="554.5" y="358.5"/><rect fill="#F1F1F1" height="2" style="stroke:#181818;stroke-width:0.5;" width="4" x="552.5" y="360.5"/><rect fill="#F1F1F1" height="2" style="stroke:#181818;stroke-width:0.5;" width="4" x="552.5" y="364.5"/><text fill="#000000" font-family="sans-serif" font-size="14" lengthAdjust="spacing" textLength="129" x="420.5" y="386.4951">User Management</text></g><!--entity File Storage--><g id="elem_File Storage"><rect fill="#F1F1F1" height="46.2969" rx="2.5" ry="2.5" style="stroke:#181818;stroke-width:0.5;" width="126" x="266" y="459.5"/><rect fill="#F1F1F1" height="10" style="stroke:#181818;stroke-width:0.5;" width="15" x="372" y="464.5"/><rect fill="#F1F1F1" height="2" style="stroke:#181818;stroke-width:0.5;" width="4" x="370" y="466.5"/><rect fill="#F1F1F1" height="2" style="stroke:#181818;stroke-width:0.5;" width="4" x="370" y="470.5"/><text fill="#000000" font-family="sans-serif" font-size="14" lengthAdjust="spacing" textLength="86" x="281" y="492.4951">File Storage</text></g><!--entity Third-party Integration--><g id="elem_Third-party Integration"><rect fill="#F1F1F1" height="46.2969" rx="2.5" ry="2.5" style="stroke:#181818;stroke-width:0.5;" width="207" x="23.5" y="459.5"/><rect fill="#F1F1F1" height="10" style="stroke:#181818;stroke-width:0.5;" width="15" x="210.5" y="464.5"/><rect fill="#F1F1F1" height="2" style="stroke:#181818;stroke-width:0.5;" width="4" x="208.5" y="466.5"/><rect fill="#F1F1F1" height="2" style="stroke:#181818;stroke-width:0.5;" width="4" x="208.5" y="470.5"/><text fill="#000000" font-family="sans-serif" font-size="14" lengthAdjust="spacing" textLength="167" x="38.5" y="492.4951">Third-party Integration</text></g><!--entity Authentication--><g id="elem_Authentication"><rect fill="#F1F1F1" height="46.2969" rx="2.5" ry="2.5" style="stroke:#181818;stroke-width:0.5;" width="148" x="427" y="459.5"/><rect fill="#F1F1F1" height="10" style="stroke:#181818;stroke-width:0.5;" width="15" x="555" y="464.5"/><rect fill="#F1F1F1" height="2" style="stroke:#181818;stroke-width:0.5;" width="4" x="553" y="466.5"/><rect fill="#F1F1F1" height="2" style="stroke:#181818;stroke-width:0.5;" width="4" x="553" y="470.5"/><text fill="#000000" font-family="sans-serif" font-size="14" lengthAdjust="spacing" textLength="108" x="442" y="492.4951">Authentication</text></g><!--entity Search--><g id="elem_Search"><rect fill="#F1F1F1" height="46.2969" rx="2.5" ry="2.5" style="stroke:#181818;stroke-width:0.5;" width="89" x="364.5" y="247.5"/><rect fill="#F1F1F1" height="10" style="stroke:#181818;stroke-width:0.5;" width="15" x="433.5" y="252.5"/><rect fill="#F1F1F1" height="2" style="stroke:#181818;stroke-width:0.5;" width="4" x="431.5" y="254.5"/><rect fill="#F1F1F1" height="2" style="stroke:#181818;stroke-width:0.5;" width="4" x="431.5" y="258.5"/><text fill="#000000" font-family="sans-serif" font-size="14" lengthAdjust="spacing" textLength="49" x="379.5" y="280.4951">Search</text></g><!--entity User--><g id="elem_User"><ellipse cx="372" cy="14" fill="#F1F1F1" rx="8" ry="8" style="stroke:#181818;stroke-width:0.5;"/><path d="M372,22 L372,49 M359,30 L385,30 M372,49 L359,64 M372,49 L385,64 " fill="none" style="stroke:#181818;stroke-width:0.5;"/><text fill="#000000" font-family="sans-serif" font-size="14" lengthAdjust="spacing" textLength="31" x="356.5" y="78.4951">User</text></g><!--entity Admin--><g id="elem_Admin"><ellipse cx="446" cy="14" fill="#F1F1F1" rx="8" ry="8" style="stroke:#181818;stroke-width:0.5;"/><path d="M446,22 L446,49 M433,30 L459,30 M446,49 L433,64 M446,49 L459,64 " fill="none" style="stroke:#181818;stroke-width:0.5;"/><text fill="#000000" font-family="sans-serif" font-size="14" lengthAdjust="spacing" textLength="46" x="423" y="78.4951">Admin</text></g><!--entity Pixrl--><g id="elem_Pixrl"><path d="M106.1198,575.0689 C108.2827,569.3668 113.2985,568.1066 117.2098,573.2872 C119.6266,568.3214 123.745,567.2927 127.6898,571.5514 C131.8008,566.7177 136.7456,569.008 138.5681,574.0677 C141.8861,567.9177 145.8565,569.1449 149.6834,573.5309 C158.8001,576.5866 161.2672,582.6563 153.8948,589.9431 C160.2857,596.0866 159.437,600.8091 151.4377,604.5284 C150.6703,612.0655 145.893,614.357 139.6011,610.0489 C137.4778,616.6127 133.3489,618.8135 127.1609,614.8539 C121.2792,618.9645 118.0428,616.9425 116.5135,610.4736 C110.7979,612.8236 106.3836,611.9866 106.2991,604.579 C97.8057,601.6055 96.1598,594.1696 103.9352,588.7643 C98.2217,583.3672 99.8384,578.5526 106.1198,575.0689 " fill="#F1F1F1" style="stroke:#181818;stroke-width:0.5;"/><text fill="#000000" font-family="sans-serif" font-size="14" lengthAdjust="spacing" textLength="31" x="111.5" y="593.4951">Pixrl</text></g><!--link Admin to UI Client--><g id="link_Admin_UI Client"><path d="M434.496,81.5 C428.386,101.15 422.8644,118.9096 417.6434,135.7016 " fill="none" id="Admin-to-UI Client" style="stroke:#181818;stroke-width:1.0;"/><polygon fill="#181818" points="415.862,141.431,422.3537,134.0244,417.3465,136.6565,414.7145,131.6492,415.862,141.431" style="stroke:#181818;stroke-width:1.0;"/></g><!--link User to UI Client--><g id="link_User_UI Client"><path d="M383.504,81.5 C389.614,101.15 395.1356,118.9096 400.3566,135.7016 " fill="none" id="User-to-UI Client" style="stroke:#181818;stroke-width:1.0;"/><polygon fill="#181818" points="402.138,141.431,403.2855,131.6492,400.6535,136.6565,395.6463,134.0244,402.138,141.431" style="stroke:#181818;stroke-width:1.0;"/></g><!--link UI Client to Posts--><g id="link_UI Client_Posts"><path d="M387.398,187.568 C373.553,203.055 356.463,224.954 347,247.5 C332.307,282.509 328.9002,321.0803 328.1682,347.3303 " fill="none" id="UI Client-to-Posts" style="stroke:#181818;stroke-width:1.0;"/><polygon fill="#181818" points="328.001,353.328,332.2503,344.443,328.1404,348.3299,324.2534,344.22,328.001,353.328" style="stroke:#181818;stroke-width:1.0;"/></g><!--link UI Client to Search--><g id="link_UI Client_Search"><path d="M409,187.556 C409,205.205 409,223.835 409,241.476 " fill="none" id="UI Client-to-Search" style="stroke:#181818;stroke-width:1.0;"/><polygon fill="#181818" points="409,247.476,413,238.476,409,242.476,405,238.476,409,247.476" style="stroke:#181818;stroke-width:1.0;"/></g><!--link Search to Posts--><g id="link_Search_Posts"><path d="M391.822,293.556 C378.076,311.205 362.5799,331.1014 348.8399,348.7424 " fill="none" id="Search-to-Posts" style="stroke:#181818;stroke-width:1.0;"/><polygon fill="#181818" points="345.153,353.476,353.839,348.8335,348.2254,349.5313,347.5275,343.9177,345.153,353.476" style="stroke:#181818;stroke-width:1.0;"/></g><!--link Search to User Management--><g id="link_Search_User Management"><path d="M426.178,293.556 C439.924,311.205 455.4201,331.1014 469.1601,348.7424 " fill="none" id="Search-to-User Management" style="stroke:#181818;stroke-width:1.0;"/><polygon fill="#181818" points="472.847,353.476,470.4725,343.9177,469.7746,349.5313,464.161,348.8335,472.847,353.476" style="stroke:#181818;stroke-width:1.0;"/></g><!--link UI Client to User Management--><g id="link_UI Client_User Management"><path d="M430.602,187.568 C444.447,203.055 461.537,224.954 471,247.5 C485.693,282.509 489.0998,321.0803 489.8318,347.3303 " fill="none" id="UI Client-to-User Management" style="stroke:#181818;stroke-width:1.0;"/><polygon fill="#181818" points="489.999,353.328,493.7466,344.22,489.8596,348.3299,485.7497,344.443,489.999,353.328" style="stroke:#181818;stroke-width:1.0;"/></g><!--link Posts to Third-party Integration--><g id="link_Posts_Third-party Integration"><path d="M288.289,398.047 C254.08,415.747 210.1499,438.4766 175.0849,456.6206 " fill="none" id="Posts-to-Third-party Integration" style="stroke:#181818;stroke-width:1.0;"/><polygon fill="#181818" points="169.756,459.378,179.5876,458.7945,174.1967,457.0802,175.9111,451.6894,169.756,459.378" style="stroke:#181818;stroke-width:1.0;"/></g><!--link Posts to File Storage--><g id="link_Posts_File Storage"><path d="M328.212,399.556 C328.382,417.205 328.5615,435.8353 328.7305,453.4763 " fill="none" id="Posts-to-File Storage" style="stroke:#181818;stroke-width:1.0;"/><polygon fill="#181818" points="328.788,459.476,332.7016,450.4381,328.7401,454.4762,324.702,450.5147,328.788,459.476" style="stroke:#181818;stroke-width:1.0;"/></g><!--link User Management to Authentication--><g id="link_User Management_Authentication"><path d="M492.333,399.556 C494.2,417.205 496.1739,435.8683 498.0399,453.5093 " fill="none" id="User Management-to-Authentication" style="stroke:#181818;stroke-width:1.0;"/><polygon fill="#181818" points="498.671,459.476,501.7021,450.1052,498.1451,454.5037,493.7465,450.9467,498.671,459.476" style="stroke:#181818;stroke-width:1.0;"/></g><!--link Third-party Integration to Pixrl--><g id="link_Third-party Integration_Pixrl"><path d="M127,505.556 C127,523.2049 127,541.8353 127,559.4761 " fill="none" id="Third-party Integration-to-Pixrl" style="stroke:#181818;stroke-width:1.0;"/><polygon fill="#181818" points="127,565.4761,131,556.4761,127,560.4761,123,556.4761,127,565.4761" style="stroke:#181818;stroke-width:1.0;"/></g><!--SRC=[TL3B2eCm4BplLopU_OM250eU2eBrL3o464mW3uaHMah_lJ6fj35ucvsPdNqGwep5RcOMI83Le8G6e4PDHZFjiAWL6Hcsd5YXHwocgS0N8Dwx6izIU4k_LesPtHpG6ePNedsNsjIBa3x2vtio43Skx51EnBedrjgnqH8dZ0vQjJZk6mNzKIqZbl8UtX3smx8y9Gk4cNlo3qVjksF6R-aRIDq9cHsNXUME61JLmxiJL_gkB3AQzcy2AiqoO2CULW8SJWhDmVG1]--></g></svg>