<?xml version="1.0" encoding="us-ascii" standalone="no"?><svg xmlns="http://www.w3.org/2000/svg" xmlns:xlink="http://www.w3.org/1999/xlink" contentStyleType="text/css" height="394px" preserveAspectRatio="none" style="width:341px;height:394px;background:#FFFFFF;" version="1.1" viewBox="0 0 341 394" width="341px" zoomAndPan="magnify"><defs/><g><!--cluster Posts--><g id="cluster_Posts"><path d="M8.5,78 L55.5,78 A3.75,3.75 0 0 1 58,80.5 L65,100.2969 L187.5,100.2969 A2.5,2.5 0 0 1 190,102.7969 L190,384.5 A2.5,2.5 0 0 1 187.5,387 L8.5,387 A2.5,2.5 0 0 1 6,384.5 L6,80.5 A2.5,2.5 0 0 1 8.5,78 " fill="none" style="stroke:#000000;stroke-width:1.5;"/><line style="stroke:#000000;stroke-width:1.5;" x1="6" x2="65" y1="100.2969" y2="100.2969"/><text fill="#000000" font-family="sans-serif" font-size="14" font-weight="bold" lengthAdjust="spacing" textLength="46" x="10" y="92.9951">Posts</text></g><!--entity PostController--><g id="elem_PostController"><rect fill="#F1F1F1" height="46.2969" rx="2.5" ry="2.5" style="stroke:#181818;stroke-width:0.5;" width="145" x="26.5" y="113"/><rect fill="#F1F1F1" height="10" style="stroke:#181818;stroke-width:0.5;" width="15" x="151.5" y="118"/><rect fill="#F1F1F1" height="2" style="stroke:#181818;stroke-width:0.5;" width="4" x="149.5" y="120"/><rect fill="#F1F1F1" height="2" style="stroke:#181818;stroke-width:0.5;" width="4" x="149.5" y="124"/><text fill="#000000" font-family="sans-serif" font-size="14" lengthAdjust="spacing" textLength="105" x="41.5" y="145.9951">PostController</text></g><!--entity PostService--><g id="elem_PostService"><rect fill="#F1F1F1" height="46.2969" rx="2.5" ry="2.5" style="stroke:#181818;stroke-width:0.5;" width="125" x="36.5" y="219"/><rect fill="#F1F1F1" height="10" style="stroke:#181818;stroke-width:0.5;" width="15" x="141.5" y="224"/><rect fill="#F1F1F1" height="2" style="stroke:#181818;stroke-width:0.5;" width="4" x="139.5" y="226"/><rect fill="#F1F1F1" height="2" style="stroke:#181818;stroke-width:0.5;" width="4" x="139.5" y="230"/><text fill="#000000" font-family="sans-serif" font-size="14" lengthAdjust="spacing" textLength="85" x="51.5" y="251.9951">PostService</text></g><!--entity PostRepository--><g id="elem_PostRepository"><rect fill="#F1F1F1" height="46.2969" rx="2.5" ry="2.5" style="stroke:#181818;stroke-width:0.5;" width="151" x="22.5" y="325"/><rect fill="#F1F1F1" height="10" style="stroke:#181818;stroke-width:0.5;" width="15" x="153.5" y="330"/><rect fill="#F1F1F1" height="2" style="stroke:#181818;stroke-width:0.5;" width="4" x="151.5" y="332"/><rect fill="#F1F1F1" height="2" style="stroke:#181818;stroke-width:0.5;" width="4" x="151.5" y="336"/><text fill="#000000" font-family="sans-serif" font-size="14" lengthAdjust="spacing" textLength="111" x="37.5" y="357.9951">PostRepository</text></g><!--entity Ui Client--><g id="elem_Ui Client"><rect fill="#F1F1F1" height="46.2969" rx="2.5" ry="2.5" style="stroke:#181818;stroke-width:0.5;" width="100" x="49" y="7"/><rect fill="#F1F1F1" height="10" style="stroke:#181818;stroke-width:0.5;" width="15" x="129" y="12"/><rect fill="#F1F1F1" height="2" style="stroke:#181818;stroke-width:0.5;" width="4" x="127" y="14"/><rect fill="#F1F1F1" height="2" style="stroke:#181818;stroke-width:0.5;" width="4" x="127" y="18"/><text fill="#000000" font-family="sans-serif" font-size="14" lengthAdjust="spacing" textLength="60" x="64" y="39.9951">Ui Client</text></g><!--entity File Storage--><g id="elem_File Storage"><rect fill="#F1F1F1" height="46.2969" rx="2.5" ry="2.5" style="stroke:#181818;stroke-width:0.5;" width="126" x="209" y="325"/><rect fill="#F1F1F1" height="10" style="stroke:#181818;stroke-width:0.5;" width="15" x="315" y="330"/><rect fill="#F1F1F1" height="2" style="stroke:#181818;stroke-width:0.5;" width="4" x="313" y="332"/><rect fill="#F1F1F1" height="2" style="stroke:#181818;stroke-width:0.5;" width="4" x="313" y="336"/><text fill="#000000" font-family="sans-serif" font-size="14" lengthAdjust="spacing" textLength="86" x="224" y="357.9951">File Storage</text></g><!--link Ui Client to PostController--><g id="link_Ui Client_PostController"><path d="M99,53.056 C99,70.705 99,89.335 99,106.976 " fill="none" id="Ui Client-to-PostController" style="stroke:#181818;stroke-width:1.0;"/><polygon fill="#181818" points="99,112.976,103,103.976,99,107.976,95,103.976,99,112.976" style="stroke:#181818;stroke-width:1.0;"/></g><!--link PostController to PostService--><g id="link_PostController_PostService"><path d="M99,159.056 C99,176.705 99,195.335 99,212.976 " fill="none" id="PostController-to-PostService" style="stroke:#181818;stroke-width:1.0;"/><polygon fill="#181818" points="99,218.976,103,209.976,99,213.976,95,209.976,99,218.976" style="stroke:#181818;stroke-width:1.0;"/></g><!--link PostService to PostRepository--><g id="link_PostService_PostRepository"><path d="M98.788,265.056 C98.618,282.705 98.4385,301.3356 98.2695,318.9764 " fill="none" id="PostService-to-PostRepository" style="stroke:#181818;stroke-width:1.0;"/><polygon fill="#181818" points="98.212,324.9761,102.298,316.0148,98.2599,319.9763,94.2984,315.9382,98.212,324.9761" style="stroke:#181818;stroke-width:1.0;"/></g><!--link PostService to File Storage--><g id="link_PostService_File Storage"><path d="M135.689,265.056 C165.048,282.705 200.8767,304.244 230.2217,321.8848 " fill="none" id="PostService-to-File Storage" style="stroke:#181818;stroke-width:1.0;"/><polygon fill="#181818" points="235.364,324.9761,229.7114,316.9109,231.0787,322.4,225.5896,323.7673,235.364,324.9761" style="stroke:#181818;stroke-width:1.0;"/></g><!--SRC=[AqXCpavCJrLG2iWlBYbMKgZcKb281h6Ty_DAYl9pSbABOc52mQb5PPd9gN1-K6f1Vd5cINvHPInNBHTNT6YcWdDEPcfUIQo2hguTfZ7e0WXLS9DHU0XvP9kmA77Bp4bL20PA0tqI2m00]--></g></svg>