<?xml version="1.0" encoding="us-ascii" standalone="no"?><svg xmlns="http://www.w3.org/2000/svg" xmlns:xlink="http://www.w3.org/1999/xlink" contentStyleType="text/css" height="416px" preserveAspectRatio="none" style="width:870px;height:416px;background:#FFFFFF;" version="1.1" viewBox="0 0 870 416" width="870px" zoomAndPan="magnify"><defs/><g><!--cluster Business Context--><g id="cluster_Business Context"><rect fill="none" height="403" rx="2.5" ry="2.5" style="stroke:#181818;stroke-width:1.0;" width="812" x="52" y="7"/><path d="M203,7 L203,16.2969 L193,26.2969 L52,26.2969 " fill="none" style="stroke:#181818;stroke-width:1.0;"/><text fill="#000000" font-family="sans-serif" font-size="14" font-weight="bold" lengthAdjust="spacing" textLength="141" x="55" y="20.9951">Business Context</text></g><!--entity User--><g id="elem_User"><ellipse cx="358" cy="50.5" fill="#F1F1F1" rx="8" ry="8" style="stroke:#181818;stroke-width:0.5;"/><path d="M358,58.5 L358,85.5 M345,66.5 L371,66.5 M358,85.5 L345,100.5 M358,85.5 L371,100.5 " fill="none" style="stroke:#181818;stroke-width:0.5;"/><text fill="#000000" font-family="sans-serif" font-size="14" lengthAdjust="spacing" textLength="31" x="342.5" y="114.9951">User</text></g><!--entity Community--><g id="elem_Community"><ellipse cx="110" cy="326.5" fill="#F1F1F1" rx="8" ry="8" style="stroke:#181818;stroke-width:0.5;"/><path d="M110,334.5 L110,361.5 M97,342.5 L123,342.5 M110,361.5 L97,376.5 M110,361.5 L123,376.5 " fill="none" style="stroke:#181818;stroke-width:0.5;"/><text fill="#000000" font-family="sans-serif" font-size="14" lengthAdjust="spacing" textLength="83" x="68.5" y="390.9951">Community</text></g><!--entity Government--><g id="elem_Government"><ellipse cx="287" cy="326.5" fill="#F1F1F1" rx="8" ry="8" style="stroke:#181818;stroke-width:0.5;"/><path d="M287,334.5 L287,361.5 M274,342.5 L300,342.5 M287,361.5 L274,376.5 M287,361.5 L300,376.5 " fill="none" style="stroke:#181818;stroke-width:0.5;"/><text fill="#000000" font-family="sans-serif" font-size="14" lengthAdjust="spacing" textLength="91" x="241.5" y="390.9951">Government</text></g><!--entity app--><g id="elem_app"><rect fill="#F1F1F1" height="46.2969" rx="2.5" ry="2.5" style="stroke:#181818;stroke-width:0.5;" width="140" x="288" y="195"/><rect fill="#F1F1F1" height="10" style="stroke:#181818;stroke-width:0.5;" width="15" x="408" y="200"/><rect fill="#F1F1F1" height="2" style="stroke:#181818;stroke-width:0.5;" width="4" x="406" y="202"/><rect fill="#F1F1F1" height="2" style="stroke:#181818;stroke-width:0.5;" width="4" x="406" y="206"/><text fill="#000000" font-family="sans-serif" font-size="14" lengthAdjust="spacing" textLength="100" x="303" y="227.9951">image sharing</text></g><!--entity Pixlr--><g id="elem_Pixlr"><rect fill="#F1F1F1" height="36.2969" rx="2.5" ry="2.5" style="stroke:#181818;stroke-width:0.5;" width="51" x="404.5" y="338"/><text fill="#000000" font-family="sans-serif" font-size="14" lengthAdjust="spacing" textLength="31" x="414.5" y="360.9951">Pixlr</text></g><!--entity AI--><g id="elem_AI"><rect fill="#F1F1F1" height="36.2969" rx="2.5" ry="2.5" style="stroke:#181818;stroke-width:0.5;" width="181" x="500.5" y="338"/><text fill="#000000" font-family="sans-serif" font-size="14" lengthAdjust="spacing" textLength="161" x="510.5" y="360.9951">AI Image Classification</text></g><!--entity sm--><g id="elem_sm"><rect fill="#F1F1F1" height="36.2969" rx="2.5" ry="2.5" style="stroke:#181818;stroke-width:0.5;" width="108" x="717" y="338"/><text fill="#000000" font-family="sans-serif" font-size="14" lengthAdjust="spacing" textLength="88" x="727" y="360.9951">Social Media</text></g><!--entity user--><g id="elem_user"><ellipse cx="21" cy="50.5" fill="#F1F1F1" rx="8" ry="8" style="stroke:#181818;stroke-width:0.5;"/><path d="M21,58.5 L21,85.5 M8,66.5 L34,66.5 M21,85.5 L8,100.5 M21,85.5 L34,100.5 " fill="none" style="stroke:#181818;stroke-width:0.5;"/><text fill="#000000" font-family="sans-serif" font-size="14" lengthAdjust="spacing" textLength="30" x="6" y="114.9951">user</text></g><!--link User to app--><g id="link_User_app"><path d="M358,118.163 C358,142.7 358,174.035 358,194.771 " fill="none" id="User-app" style="stroke:#181818;stroke-width:1.0;"/><text fill="#000000" font-family="sans-serif" font-size="13" lengthAdjust="spacing" textLength="187" x="359" y="161.0669">images, content, interactions</text></g><!--link app to Pixlr--><g id="link_app_Pixlr"><path d="M372.949,241.138 C378.849,250.229 385.514,260.96 391,271 C403.335,293.575 415.486,320.744 422.864,337.9459 " fill="none" id="app-Pixlr" style="stroke:#181818;stroke-width:1.0;"/><text fill="#000000" font-family="sans-serif" font-size="13" lengthAdjust="spacing" textLength="130" x="401" y="284.0669">image modifications</text></g><!--link app to AI--><g id="link_app_AI"><path d="M428.308,226.67 C464.595,233.521 507.865,246.483 540,271 C562.652,288.282 577.453,318.763 585.007,337.8676 " fill="none" id="app-AI" style="stroke:#181818;stroke-width:1.0;"/><text fill="#000000" font-family="sans-serif" font-size="13" lengthAdjust="spacing" textLength="94" x="558" y="284.0669">image uploads</text></g><!--link app to Government--><g id="link_app_Government"><path d="M312.064,241.216 C300.861,248.989 290.298,258.878 284,271 C276.667,285.115 276.123,302.438 277.915,317.679 " fill="none" id="app-Government" style="stroke:#181818;stroke-width:1.0;"/><text fill="#000000" font-family="sans-serif" font-size="13" lengthAdjust="spacing" textLength="101" x="285" y="284.0669">law enforcment</text></g><!--link app to sm--><g id="link_app_sm"><path d="M428.09,221.545 C491.309,226.01 585.652,238.156 661,271 C698.005,287.131 733.814,318.266 754.06,337.7648 " fill="none" id="app-sm" style="stroke:#181818;stroke-width:1.0;"/><text fill="#000000" font-family="sans-serif" font-size="13" lengthAdjust="spacing" textLength="108" x="691" y="284.0669">images (sharing)</text></g><!--link app to Community--><g id="link_app_Community"><path d="M287.751,226.412 C228.234,234.154 149.137,248.376 127,271 C115.033,283.23 110.387,301.423 108.9,317.754 " fill="none" id="app-Community" style="stroke:#181818;stroke-width:1.0;"/><text fill="#000000" font-family="sans-serif" font-size="13" lengthAdjust="spacing" textLength="142" x="128" y="284.0669">interactions, reactions</text></g><!--link user to app--><g id="link_user_app"><path d="M36.2727,103.335 C40.819,108.729 46.1631,114.065 52,118 C124.341,166.768 216.4832,191.7198 281.8932,204.6688 " fill="none" id="user-to-app" style="stroke:#181818;stroke-width:1.0;stroke-dasharray:7.0,7.0;"/><polygon fill="#181818" points="287.779,205.834,279.7271,200.1624,282.8742,204.863,278.1735,208.0101,287.779,205.834" style="stroke:#181818;stroke-width:1.0;"/></g><!--SRC=[LP31JiCm343l-Ggh9v2wVG07fD43wc4I4k83hDGjbXAdYbCOGlmxILdJSOfbFyVF7YDwWkPfKHPIXIv8eajguDiOj2b4U5EAMzm5xnVXzBKbdiC7HV4aoHWR_1maXz2mnub0tp6oJ0sW0iwpCP5iGfaSmGjVNBnDDASU-hMhSwZA8rjC76HjFlN_qDTW6HsSQM1Sw-gDAPfmE9H1y02hWBPWopgIMk3ynkoSlzGidw7ChXOR3JuCTUpEPAyDM6ONSDXB-_8PSVW996E8zkyQLqPzjO6xwq7kePRhGGjrezX2f6fhVenPodh7usFPxnS0]--></g></svg>