<?xml version="1.0" encoding="us-ascii" standalone="no"?><svg xmlns="http://www.w3.org/2000/svg" xmlns:xlink="http://www.w3.org/1999/xlink" contentStyleType="text/css" height="697px" preserveAspectRatio="none" style="width:851px;height:697px;background:#FFFFFF;" version="1.1" viewBox="0 0 851 697" width="851px" zoomAndPan="magnify"><defs/><g><rect fill="#F1F1F1" height="36.2969" rx="12.5" ry="12.5" style="stroke:#181818;stroke-width:1.5;" width="70" x="10" y="329.6328"/><text fill="#000000" font-family="sans-serif" font-size="14" lengthAdjust="spacing" textLength="50" x="20" y="352.6279">Quality</text><rect fill="#F1F1F1" height="36.2969" rx="12.5" ry="12.5" style="stroke:#181818;stroke-width:1.5;" width="79" x="130" y="48.1484"/><text fill="#000000" font-family="sans-serif" font-size="14" lengthAdjust="spacing" textLength="59" x="140" y="71.1436">Security</text><rect fill="#F1F1F1" height="36.2969" rx="12.5" ry="12.5" style="stroke:#181818;stroke-width:1.5;" width="229" x="259" y="20"/><text fill="#000000" font-family="sans-serif" font-size="14" lengthAdjust="spacing" textLength="209" x="269" y="42.9951">User data must be encrypted</text><path d="M209,66.2969 L219,66.2969 C234,66.2969 234,38.1484 249,38.1484 L259,38.1484 " fill="none" style="stroke:#181818;stroke-width:1.0;"/><rect fill="#F1F1F1" height="36.2969" rx="12.5" ry="12.5" style="stroke:#181818;stroke-width:1.5;" width="392" x="259" y="76.2969"/><text fill="#000000" font-family="sans-serif" font-size="14" lengthAdjust="spacing" textLength="372" x="269" y="99.292">industry standards for data protection must be met</text><path d="M209,66.2969 L219,66.2969 C234,66.2969 234,94.4453 249,94.4453 L259,94.4453 " fill="none" style="stroke:#181818;stroke-width:1.0;"/><path d="M80,347.7813 L90,347.7813 C105,347.7813 105,66.2969 120,66.2969 L130,66.2969 " fill="none" style="stroke:#181818;stroke-width:1.0;"/><rect fill="#F1F1F1" height="36.2969" rx="12.5" ry="12.5" style="stroke:#181818;stroke-width:1.5;" width="92" x="130" y="160.7422"/><text fill="#000000" font-family="sans-serif" font-size="14" lengthAdjust="spacing" textLength="72" x="140" y="183.7373">Reliability</text><rect fill="#F1F1F1" height="36.2969" rx="12.5" ry="12.5" style="stroke:#181818;stroke-width:1.5;" width="346" x="272" y="132.5938"/><text fill="#000000" font-family="sans-serif" font-size="14" lengthAdjust="spacing" textLength="326" x="282" y="155.5889">The app should be available for use &gt; 99.99%</text><path d="M222,178.8906 L232,178.8906 C247,178.8906 247,150.7422 262,150.7422 L272,150.7422 " fill="none" style="stroke:#181818;stroke-width:1.0;"/><rect fill="#F1F1F1" height="36.2969" rx="12.5" ry="12.5" style="stroke:#181818;stroke-width:1.5;" width="210" x="272" y="188.8906"/><text fill="#000000" font-family="sans-serif" font-size="14" lengthAdjust="spacing" textLength="190" x="282" y="211.8857">downtime &lt; 1h per month</text><path d="M222,178.8906 L232,178.8906 C247,178.8906 247,207.0391 262,207.0391 L272,207.0391 " fill="none" style="stroke:#181818;stroke-width:1.0;"/><path d="M80,347.7813 L90,347.7813 C105,347.7813 105,178.8906 120,178.8906 L130,178.8906 " fill="none" style="stroke:#181818;stroke-width:1.0;"/><rect fill="#F1F1F1" height="36.2969" rx="12.5" ry="12.5" style="stroke:#181818;stroke-width:1.5;" width="81" x="130" y="273.3359"/><text fill="#000000" font-family="sans-serif" font-size="14" lengthAdjust="spacing" textLength="61" x="140" y="296.3311">Usability</text><rect fill="#F1F1F1" height="36.2969" rx="12.5" ry="12.5" style="stroke:#181818;stroke-width:1.5;" width="292" x="261" y="245.1875"/><text fill="#000000" font-family="sans-serif" font-size="14" lengthAdjust="spacing" textLength="272" x="271" y="268.1826">Image posting process takes &lt; 30 sec</text><path d="M211,291.4844 L221,291.4844 C236,291.4844 236,263.3359 251,263.3359 L261,263.3359 " fill="none" style="stroke:#181818;stroke-width:1.0;"/><rect fill="#F1F1F1" height="36.2969" rx="12.5" ry="12.5" style="stroke:#181818;stroke-width:1.5;" width="305" x="261" y="301.4844"/><text fill="#000000" font-family="sans-serif" font-size="14" lengthAdjust="spacing" textLength="285" x="271" y="324.4795">Account creation process takes &lt; 2 min</text><path d="M211,291.4844 L221,291.4844 C236,291.4844 236,319.6328 251,319.6328 L261,319.6328 " fill="none" style="stroke:#181818;stroke-width:1.0;"/><path d="M80,347.7813 L90,347.7813 C105,347.7813 105,291.4844 120,291.4844 L130,291.4844 " fill="none" style="stroke:#181818;stroke-width:1.0;"/><rect fill="#F1F1F1" height="36.2969" rx="12.5" ry="12.5" style="stroke:#181818;stroke-width:1.5;" width="105" x="130" y="385.9297"/><text fill="#000000" font-family="sans-serif" font-size="14" lengthAdjust="spacing" textLength="85" x="140" y="408.9248">Compliance</text><rect fill="#F1F1F1" height="36.2969" rx="12.5" ry="12.5" style="stroke:#181818;stroke-width:1.5;" width="268" x="285" y="357.7813"/><text fill="#000000" font-family="sans-serif" font-size="14" lengthAdjust="spacing" textLength="248" x="295" y="380.7764">Software is compliant with DSGVO</text><path d="M235,404.0781 L245,404.0781 C260,404.0781 260,375.9297 275,375.9297 L285,375.9297 " fill="none" style="stroke:#181818;stroke-width:1.0;"/><rect fill="#F1F1F1" height="36.2969" rx="12.5" ry="12.5" style="stroke:#181818;stroke-width:1.5;" width="334" x="285" y="414.0781"/><text fill="#000000" font-family="sans-serif" font-size="14" lengthAdjust="spacing" textLength="314" x="295" y="437.0732">Removal Requests are processed within 24h</text><path d="M235,404.0781 L245,404.0781 C260,404.0781 260,432.2266 275,432.2266 L285,432.2266 " fill="none" style="stroke:#181818;stroke-width:1.0;"/><path d="M80,347.7813 L90,347.7813 C105,347.7813 105,404.0781 120,404.0781 L130,404.0781 " fill="none" style="stroke:#181818;stroke-width:1.0;"/><rect fill="#F1F1F1" height="36.2969" rx="12.5" ry="12.5" style="stroke:#181818;stroke-width:1.5;" width="118" x="130" y="498.5234"/><text fill="#000000" font-family="sans-serif" font-size="14" lengthAdjust="spacing" textLength="98" x="140" y="521.5186">Maintainbility</text><rect fill="#F1F1F1" height="36.2969" rx="12.5" ry="12.5" style="stroke:#181818;stroke-width:1.5;" width="346" x="298" y="470.375"/><text fill="#000000" font-family="sans-serif" font-size="14" lengthAdjust="spacing" textLength="326" x="308" y="493.3701">Code coverage &gt; 80%, documentation &gt; 90%</text><path d="M248,516.6719 L258,516.6719 C273,516.6719 273,488.5234 288,488.5234 L298,488.5234 " fill="none" style="stroke:#181818;stroke-width:1.0;"/><rect fill="#F1F1F1" height="36.2969" rx="12.5" ry="12.5" style="stroke:#181818;stroke-width:1.5;" width="289" x="298" y="526.6719"/><text fill="#000000" font-family="sans-serif" font-size="14" lengthAdjust="spacing" textLength="269" x="308" y="549.667">Every Code change must be reviewed</text><path d="M248,516.6719 L258,516.6719 C273,516.6719 273,544.8203 288,544.8203 L298,544.8203 " fill="none" style="stroke:#181818;stroke-width:1.0;"/><path d="M80,347.7813 L90,347.7813 C105,347.7813 105,516.6719 120,516.6719 L130,516.6719 " fill="none" style="stroke:#181818;stroke-width:1.0;"/><rect fill="#F1F1F1" height="36.2969" rx="12.5" ry="12.5" style="stroke:#181818;stroke-width:1.5;" width="119" x="130" y="611.1172"/><text fill="#000000" font-family="sans-serif" font-size="14" lengthAdjust="spacing" textLength="99" x="140" y="634.1123">Compatibility</text><rect fill="#F1F1F1" height="36.2969" rx="12.5" ry="12.5" style="stroke:#181818;stroke-width:1.5;" width="540" x="299" y="582.9688"/><text fill="#000000" font-family="sans-serif" font-size="14" lengthAdjust="spacing" textLength="520" x="309" y="605.9639">Compatible with the latest versions of iOS and Android (3 versions back)</text><path d="M249,629.2656 L259,629.2656 C274,629.2656 274,601.1172 289,601.1172 L299,601.1172 " fill="none" style="stroke:#181818;stroke-width:1.0;"/><rect fill="#F1F1F1" height="36.2969" rx="12.5" ry="12.5" style="stroke:#181818;stroke-width:1.5;" width="390" x="299" y="639.2656"/><text fill="#000000" font-family="sans-serif" font-size="14" lengthAdjust="spacing" textLength="370" x="309" y="662.2607">UI should scale accordingly even with tablet devices</text><path d="M249,629.2656 L259,629.2656 C274,629.2656 274,657.4141 289,657.4141 L299,657.4141 " fill="none" style="stroke:#181818;stroke-width:1.0;"/><path d="M80,347.7813 L90,347.7813 C105,347.7813 105,629.2656 120,629.2656 L130,629.2656 " fill="none" style="stroke:#181818;stroke-width:1.0;"/><!--SRC=[NLDTRnen47o_Nx4laG0rY8-e2gYAaXAQ9W8bvO1tdxtaBExigxq6yU-pDboRzk74OS_ipixEtNiIZcfjL2sQBEl1ho0gJQUiruCSPN3dznviF3fGWWJKmHCK26YaEpM4Ajrp1Jvt9-22HWcdFEpiXT4uIoX9M_E7N2F55Ykij2XqrNPPbmYYQS2NDbGg0iL1w4eK5QPomIFSmMJIdqok4a7Peo5T8to3OGaDQwojeJ9BYZzNVgx5Eq9ZFMdp7XL9z1v8xD4pTpm0Zp817wIqmH18Xo99_Xyx0hOhDfZPkc7vHc8YvdP7H-4Gj0TvkI8uQYhXCN_QlYRG2cjx41N__WxeoKCaN3gWIcXjO7IJ9bWAROYVJsFCh4AkVa0Nnxc3sy7L5pP1XXePclIoFuEpENE6dIwKKXWcjFOxF6WyfjMbCPZvJvFp2PkUv1DlfHB4Ue4hUcxYmUv0l-R0kuO7evpL2ZhZlzU5aFlkEJZFxJQz55nHiBzEyHAg4-01pQL5N361ObriHPRT8oUoJULRnKvkbeksF0pxey5et1_U54XYrDcOlU4S9DSrjuY1w6QTfxS5U1kSH52QiwcB40tgPYySAbY559mfn7-TzR8B-RmzXBavQ6TDD3LxsIxF8FXfAMyi9V3Nc-llclWRSImAjili4NSYLCHKQUDuKzYiVrpVPWisFl2oflp1PBCOBNVYk_m3]--></g></svg>