<?xml version="1.0" encoding="us-ascii" standalone="no"?><svg xmlns="http://www.w3.org/2000/svg" xmlns:xlink="http://www.w3.org/1999/xlink" contentStyleType="text/css" height="660px" preserveAspectRatio="none" style="width:743px;height:660px;background:#FFFFFF;" version="1.1" viewBox="0 0 743 660" width="743px" zoomAndPan="magnify"><defs/><g><line style="stroke:#181818;stroke-width:0.5;stroke-dasharray:5.0,5.0;" x1="23" x2="23" y1="81.2969" y2="579.2891"/><line style="stroke:#181818;stroke-width:0.5;stroke-dasharray:5.0,5.0;" x1="294.5" x2="294.5" y1="81.2969" y2="579.2891"/><line style="stroke:#181818;stroke-width:0.5;stroke-dasharray:5.0,5.0;" x1="485" x2="485" y1="81.2969" y2="579.2891"/><line style="stroke:#181818;stroke-width:0.5;stroke-dasharray:5.0,5.0;" x1="694.5" x2="694.5" y1="81.2969" y2="579.2891"/><text fill="#000000" font-family="sans-serif" font-size="14" lengthAdjust="spacing" textLength="31" x="5" y="77.9951">User</text><ellipse cx="23.5" cy="13.5" fill="#E2E2F0" rx="8" ry="8" style="stroke:#181818;stroke-width:0.5;"/><path d="M23.5,21.5 L23.5,48.5 M10.5,29.5 L36.5,29.5 M23.5,48.5 L10.5,63.5 M23.5,48.5 L36.5,63.5 " fill="none" style="stroke:#181818;stroke-width:0.5;"/><text fill="#000000" font-family="sans-serif" font-size="14" lengthAdjust="spacing" textLength="31" x="5" y="591.2842">User</text><ellipse cx="23.5" cy="603.0859" fill="#E2E2F0" rx="8" ry="8" style="stroke:#181818;stroke-width:0.5;"/><path d="M23.5,611.0859 L23.5,638.0859 M10.5,619.0859 L36.5,619.0859 M23.5,638.0859 L10.5,653.0859 M23.5,638.0859 L36.5,653.0859 " fill="none" style="stroke:#181818;stroke-width:0.5;"/><rect fill="#E2E2F0" height="30.2969" rx="2.5" ry="2.5" style="stroke:#181818;stroke-width:0.5;" width="44" x="272.5" y="50"/><text fill="#000000" font-family="sans-serif" font-size="14" lengthAdjust="spacing" textLength="30" x="279.5" y="69.9951">App</text><rect fill="#E2E2F0" height="30.2969" rx="2.5" ry="2.5" style="stroke:#181818;stroke-width:0.5;" width="44" x="272.5" y="578.2891"/><text fill="#000000" font-family="sans-serif" font-size="14" lengthAdjust="spacing" textLength="30" x="279.5" y="598.2842">App</text><rect fill="#E2E2F0" height="30.2969" rx="2.5" ry="2.5" style="stroke:#181818;stroke-width:0.5;" width="45" x="463" y="50"/><text fill="#000000" font-family="sans-serif" font-size="14" lengthAdjust="spacing" textLength="31" x="470" y="69.9951">Pixlr</text><rect fill="#E2E2F0" height="30.2969" rx="2.5" ry="2.5" style="stroke:#181818;stroke-width:0.5;" width="45" x="463" y="578.2891"/><text fill="#000000" font-family="sans-serif" font-size="14" lengthAdjust="spacing" textLength="31" x="470" y="598.2842">Pixlr</text><text fill="#000000" font-family="sans-serif" font-size="14" lengthAdjust="spacing" textLength="68" x="657.5" y="77.9951">Database</text><path d="M676.5,29 C676.5,19 694.5,19 694.5,19 C694.5,19 712.5,19 712.5,29 L712.5,55 C712.5,65 694.5,65 694.5,65 C694.5,65 676.5,65 676.5,55 L676.5,29 " fill="#E2E2F0" style="stroke:#181818;stroke-width:1.5;"/><path d="M676.5,29 C676.5,39 694.5,39 694.5,39 C694.5,39 712.5,39 712.5,29 " fill="none" style="stroke:#181818;stroke-width:1.5;"/><text fill="#000000" font-family="sans-serif" font-size="14" lengthAdjust="spacing" textLength="68" x="657.5" y="591.2842">Database</text><path d="M676.5,604.5859 C676.5,594.5859 694.5,594.5859 694.5,594.5859 C694.5,594.5859 712.5,594.5859 712.5,604.5859 L712.5,630.5859 C712.5,640.5859 694.5,640.5859 694.5,640.5859 C694.5,640.5859 676.5,640.5859 676.5,630.5859 L676.5,604.5859 " fill="#E2E2F0" style="stroke:#181818;stroke-width:1.5;"/><path d="M676.5,604.5859 C676.5,614.5859 694.5,614.5859 694.5,614.5859 C694.5,614.5859 712.5,614.5859 712.5,604.5859 " fill="none" style="stroke:#181818;stroke-width:1.5;"/><rect fill="#EEEEEE" height="3" style="stroke:#EEEEEE;stroke-width:1.0;" width="736.5" x="0" y="111.8633"/><line style="stroke:#000000;stroke-width:1.0;" x1="0" x2="736.5" y1="111.8633" y2="111.8633"/><line style="stroke:#000000;stroke-width:1.0;" x1="0" x2="736.5" y1="114.8633" y2="114.8633"/><rect fill="#EEEEEE" height="23.1328" style="stroke:#000000;stroke-width:2.0;" width="336" x="200.25" y="101.2969"/><text fill="#000000" font-family="sans-serif" font-size="13" font-weight="bold" lengthAdjust="spacing" textLength="317" x="206.25" y="117.3638">User selects and edits an image with Pixlr</text><polygon fill="#181818" points="282.5,151.5625,292.5,155.5625,282.5,159.5625,286.5,155.5625" style="stroke:#181818;stroke-width:1.0;"/><line style="stroke:#181818;stroke-width:1.0;" x1="23.5" x2="288.5" y1="155.5625" y2="155.5625"/><text fill="#000000" font-family="sans-serif" font-size="13" lengthAdjust="spacing" textLength="106" x="30.5" y="150.4966">1. Selects image</text><polygon fill="#181818" points="282.5,180.6953,292.5,184.6953,282.5,188.6953,286.5,184.6953" style="stroke:#181818;stroke-width:1.0;"/><line style="stroke:#181818;stroke-width:1.0;" x1="23.5" x2="288.5" y1="184.6953" y2="184.6953"/><text fill="#000000" font-family="sans-serif" font-size="13" lengthAdjust="spacing" textLength="198" x="30.5" y="179.6294">2. Clicks "Edit with Pixlr" button</text><polygon fill="#181818" points="473.5,209.8281,483.5,213.8281,473.5,217.8281,477.5,213.8281" style="stroke:#181818;stroke-width:1.0;"/><line style="stroke:#181818;stroke-width:1.0;" x1="294.5" x2="479.5" y1="213.8281" y2="213.8281"/><text fill="#000000" font-family="sans-serif" font-size="13" lengthAdjust="spacing" textLength="167" x="301.5" y="208.7622">3. Initiates editing process</text><line style="stroke:#181818;stroke-width:1.0;" x1="485.5" x2="527.5" y1="242.9609" y2="242.9609"/><line style="stroke:#181818;stroke-width:1.0;" x1="527.5" x2="527.5" y1="242.9609" y2="255.9609"/><line style="stroke:#181818;stroke-width:1.0;" x1="486.5" x2="527.5" y1="255.9609" y2="255.9609"/><polygon fill="#181818" points="496.5,251.9609,486.5,255.9609,496.5,259.9609,492.5,255.9609" style="stroke:#181818;stroke-width:1.0;"/><text fill="#000000" font-family="sans-serif" font-size="13" lengthAdjust="spacing" textLength="195" x="492.5" y="237.895">4. Edits image using Pixlr tools</text><polygon fill="#181818" points="305.5,281.0938,295.5,285.0938,305.5,289.0938,301.5,285.0938" style="stroke:#181818;stroke-width:1.0;"/><line style="stroke:#181818;stroke-width:1.0;stroke-dasharray:2.0,2.0;" x1="299.5" x2="484.5" y1="285.0938" y2="285.0938"/><text fill="#000000" font-family="sans-serif" font-size="13" lengthAdjust="spacing" textLength="84" x="311.5" y="280.0278">Edited image</text><polygon fill="#181818" points="282.5,310.2266,292.5,314.2266,282.5,318.2266,286.5,314.2266" style="stroke:#181818;stroke-width:1.0;"/><line style="stroke:#181818;stroke-width:1.0;" x1="23.5" x2="288.5" y1="314.2266" y2="314.2266"/><text fill="#000000" font-family="sans-serif" font-size="13" lengthAdjust="spacing" textLength="206" x="30.5" y="309.1606">5. Saves edited image to device</text><polygon fill="#181818" points="282.5,339.3594,292.5,343.3594,282.5,347.3594,286.5,343.3594" style="stroke:#181818;stroke-width:1.0;"/><line style="stroke:#181818;stroke-width:1.0;" x1="23.5" x2="288.5" y1="343.3594" y2="343.3594"/><text fill="#000000" font-family="sans-serif" font-size="13" lengthAdjust="spacing" textLength="111" x="30.5" y="338.2935">6. Returns to app</text><polygon fill="#181818" points="282.5,368.4922,292.5,372.4922,282.5,376.4922,286.5,372.4922" style="stroke:#181818;stroke-width:1.0;"/><line style="stroke:#181818;stroke-width:1.0;" x1="23.5" x2="288.5" y1="372.4922" y2="372.4922"/><text fill="#000000" font-family="sans-serif" font-size="13" lengthAdjust="spacing" textLength="219" x="30.5" y="367.4263">7. Selects edited image for upload</text><polygon fill="#181818" points="682.5,397.625,692.5,401.625,682.5,405.625,686.5,401.625" style="stroke:#181818;stroke-width:1.0;"/><line style="stroke:#181818;stroke-width:1.0;" x1="294.5" x2="688.5" y1="401.625" y2="401.625"/><text fill="#000000" font-family="sans-serif" font-size="13" lengthAdjust="spacing" textLength="155" x="301.5" y="396.5591">8. Uploads edited image</text><rect fill="#EEEEEE" height="3" style="stroke:#EEEEEE;stroke-width:1.0;" width="736.5" x="0" y="430.1914"/><line style="stroke:#000000;stroke-width:1.0;" x1="0" x2="736.5" y1="430.1914" y2="430.1914"/><line style="stroke:#000000;stroke-width:1.0;" x1="0" x2="736.5" y1="433.1914" y2="433.1914"/><rect fill="#EEEEEE" height="23.1328" style="stroke:#000000;stroke-width:2.0;" width="140" x="298.25" y="419.625"/><text fill="#000000" font-family="sans-serif" font-size="13" font-weight="bold" lengthAdjust="spacing" textLength="121" x="304.25" y="435.6919">Alternate Flows</text><polygon fill="#181818" points="282.5,469.8906,292.5,473.8906,282.5,477.8906,286.5,473.8906" style="stroke:#181818;stroke-width:1.0;"/><line style="stroke:#181818;stroke-width:1.0;" x1="23.5" x2="288.5" y1="473.8906" y2="473.8906"/><text fill="#000000" font-family="sans-serif" font-size="13" lengthAdjust="spacing" textLength="128" x="30.5" y="468.8247">Cancels Pixlr editing</text><polygon fill="#181818" points="34.5,499.0234,24.5,503.0234,34.5,507.0234,30.5,503.0234" style="stroke:#181818;stroke-width:1.0;"/><line style="stroke:#181818;stroke-width:1.0;stroke-dasharray:2.0,2.0;" x1="28.5" x2="293.5" y1="503.0234" y2="503.0234"/><text fill="#000000" font-family="sans-serif" font-size="13" lengthAdjust="spacing" textLength="219" x="40.5" y="497.9575">Returns to image selection screen</text><polygon fill="#181818" points="282.5,528.1563,292.5,532.1563,282.5,536.1563,286.5,532.1563" style="stroke:#181818;stroke-width:1.0;"/><line style="stroke:#181818;stroke-width:1.0;" x1="23.5" x2="288.5" y1="532.1563" y2="532.1563"/><text fill="#000000" font-family="sans-serif" font-size="13" lengthAdjust="spacing" textLength="179" x="30.5" y="527.0903">Error during Pixlr integration</text><polygon fill="#181818" points="34.5,557.2891,24.5,561.2891,34.5,565.2891,30.5,561.2891" style="stroke:#181818;stroke-width:1.0;"/><line style="stroke:#181818;stroke-width:1.0;stroke-dasharray:2.0,2.0;" x1="28.5" x2="293.5" y1="561.2891" y2="561.2891"/><text fill="#000000" font-family="sans-serif" font-size="13" lengthAdjust="spacing" textLength="247" x="40.5" y="556.2231">Prompt to try again or contact support</text><!--SRC=[RP7TJiCm38NlynJMxgd4Fweqf6aCYRi9j0VmKbCYiYHot0tUdYHjsJguI-ll71_RgCKpR2An2iXYj0de11OXJBxNvikoQb1mYv7WQNWeDPyNCKIof2K2kWQeCUK5PeSjmS78Hsy0yxagzCLZxb33PGLlWx2mq-fL1Kjhz6U4sIfPdXZDODk9UASIb_7oiuRh2bwS4OD2iQGmheN0NbECgazmX6ygM9MWVSekPhY7n7lxAnZJP9YQ_tBUfYbmFxGSaMG23UsDFeFlAdWbwTZ5J63QywHyVzp8nEqzNQaBrcCppZpUe8Q72ZQbDDMKuooi4Bkq47Ys_X3_N629JfEDm-33pleM2SbeVPgt3zCVstW7KJEHKrFF5NDAstHytAXnGYrZrfoPhzdlWcHluM_05es3fDRU2Mg1s8NWMNu0]--></g></svg>