<?xml version="1.0" encoding="us-ascii" standalone="no"?><svg xmlns="http://www.w3.org/2000/svg" xmlns:xlink="http://www.w3.org/1999/xlink" contentStyleType="text/css" height="601px" preserveAspectRatio="none" style="width:979px;height:601px;background:#FFFFFF;" version="1.1" viewBox="0 0 979 601" width="979px" zoomAndPan="magnify"><defs/><g><line style="stroke:#181818;stroke-width:0.5;stroke-dasharray:5.0,5.0;" x1="23" x2="23" y1="81.2969" y2="521.0234"/><line style="stroke:#181818;stroke-width:0.5;stroke-dasharray:5.0,5.0;" x1="294.5" x2="294.5" y1="81.2969" y2="521.0234"/><line style="stroke:#181818;stroke-width:0.5;stroke-dasharray:5.0,5.0;" x1="540.5" x2="540.5" y1="81.2969" y2="521.0234"/><line style="stroke:#181818;stroke-width:0.5;stroke-dasharray:5.0,5.0;" x1="744.5" x2="744.5" y1="81.2969" y2="521.0234"/><line style="stroke:#181818;stroke-width:0.5;stroke-dasharray:5.0,5.0;" x1="891.5" x2="891.5" y1="81.2969" y2="521.0234"/><text fill="#000000" font-family="sans-serif" font-size="14" lengthAdjust="spacing" textLength="31" x="5" y="77.9951">User</text><ellipse cx="23.5" cy="13.5" fill="#E2E2F0" rx="8" ry="8" style="stroke:#181818;stroke-width:0.5;"/><path d="M23.5,21.5 L23.5,48.5 M10.5,29.5 L36.5,29.5 M23.5,48.5 L10.5,63.5 M23.5,48.5 L36.5,63.5 " fill="none" style="stroke:#181818;stroke-width:0.5;"/><text fill="#000000" font-family="sans-serif" font-size="14" lengthAdjust="spacing" textLength="31" x="5" y="533.0186">User</text><ellipse cx="23.5" cy="544.8203" fill="#E2E2F0" rx="8" ry="8" style="stroke:#181818;stroke-width:0.5;"/><path d="M23.5,552.8203 L23.5,579.8203 M10.5,560.8203 L36.5,560.8203 M23.5,579.8203 L10.5,594.8203 M23.5,579.8203 L36.5,594.8203 " fill="none" style="stroke:#181818;stroke-width:0.5;"/><rect fill="#E2E2F0" height="30.2969" rx="2.5" ry="2.5" style="stroke:#181818;stroke-width:0.5;" width="44" x="272.5" y="50"/><text fill="#000000" font-family="sans-serif" font-size="14" lengthAdjust="spacing" textLength="30" x="279.5" y="69.9951">App</text><rect fill="#E2E2F0" height="30.2969" rx="2.5" ry="2.5" style="stroke:#181818;stroke-width:0.5;" width="44" x="272.5" y="520.0234"/><text fill="#000000" font-family="sans-serif" font-size="14" lengthAdjust="spacing" textLength="30" x="279.5" y="540.0186">App</text><text fill="#000000" font-family="sans-serif" font-size="14" lengthAdjust="spacing" textLength="68" x="503.5" y="77.9951">Database</text><path d="M522.5,29 C522.5,19 540.5,19 540.5,19 C540.5,19 558.5,19 558.5,29 L558.5,55 C558.5,65 540.5,65 540.5,65 C540.5,65 522.5,65 522.5,55 L522.5,29 " fill="#E2E2F0" style="stroke:#181818;stroke-width:1.5;"/><path d="M522.5,29 C522.5,39 540.5,39 540.5,39 C540.5,39 558.5,39 558.5,29 " fill="none" style="stroke:#181818;stroke-width:1.5;"/><text fill="#000000" font-family="sans-serif" font-size="14" lengthAdjust="spacing" textLength="68" x="503.5" y="533.0186">Database</text><path d="M522.5,546.3203 C522.5,536.3203 540.5,536.3203 540.5,536.3203 C540.5,536.3203 558.5,536.3203 558.5,546.3203 L558.5,572.3203 C558.5,582.3203 540.5,582.3203 540.5,582.3203 C540.5,582.3203 522.5,582.3203 522.5,572.3203 L522.5,546.3203 " fill="#E2E2F0" style="stroke:#181818;stroke-width:1.5;"/><path d="M522.5,546.3203 C522.5,556.3203 540.5,556.3203 540.5,556.3203 C540.5,556.3203 558.5,556.3203 558.5,546.3203 " fill="none" style="stroke:#181818;stroke-width:1.5;"/><rect fill="#E2E2F0" height="30.2969" rx="2.5" ry="2.5" style="stroke:#181818;stroke-width:0.5;" width="122" x="683.5" y="50"/><text fill="#000000" font-family="sans-serif" font-size="14" lengthAdjust="spacing" textLength="108" x="690.5" y="69.9951">ImageUploader</text><rect fill="#E2E2F0" height="30.2969" rx="2.5" ry="2.5" style="stroke:#181818;stroke-width:0.5;" width="122" x="683.5" y="520.0234"/><text fill="#000000" font-family="sans-serif" font-size="14" lengthAdjust="spacing" textLength="108" x="690.5" y="540.0186">ImageUploader</text><rect fill="#E2E2F0" height="30.2969" rx="2.5" ry="2.5" style="stroke:#181818;stroke-width:0.5;" width="152" x="815.5" y="50"/><text fill="#000000" font-family="sans-serif" font-size="14" lengthAdjust="spacing" textLength="138" x="822.5" y="69.9951">NotificationService</text><rect fill="#E2E2F0" height="30.2969" rx="2.5" ry="2.5" style="stroke:#181818;stroke-width:0.5;" width="152" x="815.5" y="520.0234"/><text fill="#000000" font-family="sans-serif" font-size="14" lengthAdjust="spacing" textLength="138" x="822.5" y="540.0186">NotificationService</text><rect fill="#EEEEEE" height="3" style="stroke:#EEEEEE;stroke-width:1.0;" width="972.5" x="0" y="111.8633"/><line style="stroke:#000000;stroke-width:1.0;" x1="0" x2="972.5" y1="111.8633" y2="111.8633"/><line style="stroke:#000000;stroke-width:1.0;" x1="0" x2="972.5" y1="114.8633" y2="114.8633"/><rect fill="#EEEEEE" height="23.1328" style="stroke:#000000;stroke-width:2.0;" width="296" x="338.25" y="101.2969"/><text fill="#000000" font-family="sans-serif" font-size="13" font-weight="bold" lengthAdjust="spacing" textLength="277" x="344.25" y="117.3638">User comments on or likes an image</text><polygon fill="#181818" points="282.5,151.5625,292.5,155.5625,282.5,159.5625,286.5,155.5625" style="stroke:#181818;stroke-width:1.0;"/><line style="stroke:#181818;stroke-width:1.0;" x1="23.5" x2="288.5" y1="155.5625" y2="155.5625"/><text fill="#000000" font-family="sans-serif" font-size="13" lengthAdjust="spacing" textLength="161" x="30.5" y="150.4966">1. Navigates to an image</text><polygon fill="#181818" points="282.5,180.6953,292.5,184.6953,282.5,188.6953,286.5,184.6953" style="stroke:#181818;stroke-width:1.0;"/><line style="stroke:#181818;stroke-width:1.0;" x1="23.5" x2="288.5" y1="184.6953" y2="184.6953"/><text fill="#000000" font-family="sans-serif" font-size="13" lengthAdjust="spacing" textLength="247" x="30.5" y="179.6294">2. Taps on "Comment" or "Like" button</text><line style="stroke:#181818;stroke-width:1.0;" x1="294.5" x2="336.5" y1="213.8281" y2="213.8281"/><line style="stroke:#181818;stroke-width:1.0;" x1="336.5" x2="336.5" y1="213.8281" y2="226.8281"/><line style="stroke:#181818;stroke-width:1.0;" x1="295.5" x2="336.5" y1="226.8281" y2="226.8281"/><polygon fill="#181818" points="305.5,222.8281,295.5,226.8281,305.5,230.8281,301.5,226.8281" style="stroke:#181818;stroke-width:1.0;"/><text fill="#000000" font-family="sans-serif" font-size="13" lengthAdjust="spacing" textLength="232" x="301.5" y="208.7622">3. Prompts user for comment or like</text><polygon fill="#181818" points="282.5,251.9609,292.5,255.9609,282.5,259.9609,286.5,255.9609" style="stroke:#181818;stroke-width:1.0;"/><line style="stroke:#181818;stroke-width:1.0;stroke-dasharray:2.0,2.0;" x1="23.5" x2="288.5" y1="255.9609" y2="255.9609"/><text fill="#000000" font-family="sans-serif" font-size="13" lengthAdjust="spacing" textLength="225" x="30.5" y="250.895">4. Enters comment or confirms like</text><polygon fill="#181818" points="528.5,281.0938,538.5,285.0938,528.5,289.0938,532.5,285.0938" style="stroke:#181818;stroke-width:1.0;"/><line style="stroke:#181818;stroke-width:1.0;" x1="294.5" x2="534.5" y1="285.0938" y2="285.0938"/><text fill="#000000" font-family="sans-serif" font-size="13" lengthAdjust="spacing" textLength="165" x="301.5" y="280.0278">5. Stores comment or like</text><polygon fill="#181818" points="732.5,310.2266,742.5,314.2266,732.5,318.2266,736.5,314.2266" style="stroke:#181818;stroke-width:1.0;"/><line style="stroke:#181818;stroke-width:1.0;" x1="294.5" x2="738.5" y1="314.2266" y2="314.2266"/><text fill="#000000" font-family="sans-serif" font-size="13" lengthAdjust="spacing" textLength="251" x="301.5" y="309.1606">6. Associates comment/like with image</text><polygon fill="#181818" points="551.5,339.3594,541.5,343.3594,551.5,347.3594,547.5,343.3594" style="stroke:#181818;stroke-width:1.0;"/><line style="stroke:#181818;stroke-width:1.0;" x1="545.5" x2="743.5" y1="343.3594" y2="343.3594"/><text fill="#000000" font-family="sans-serif" font-size="13" lengthAdjust="spacing" textLength="180" x="557.5" y="338.2935">7. Updates image metadata</text><polygon fill="#181818" points="879.5,368.4922,889.5,372.4922,879.5,376.4922,883.5,372.4922" style="stroke:#181818;stroke-width:1.0;"/><line style="stroke:#181818;stroke-width:1.0;" x1="294.5" x2="885.5" y1="372.4922" y2="372.4922"/><text fill="#000000" font-family="sans-serif" font-size="13" lengthAdjust="spacing" textLength="194" x="301.5" y="367.4263">8. Notifies owner of the image</text><polygon fill="#181818" points="34.5,397.625,24.5,401.625,34.5,405.625,30.5,401.625" style="stroke:#181818;stroke-width:1.0;"/><line style="stroke:#181818;stroke-width:1.0;stroke-dasharray:2.0,2.0;" x1="28.5" x2="890.5" y1="401.625" y2="401.625"/><text fill="#000000" font-family="sans-serif" font-size="13" lengthAdjust="spacing" textLength="191" x="40.5" y="396.5591">9. Sends notification to owner</text><polygon fill="#181818" points="34.5,426.7578,24.5,430.7578,34.5,434.7578,30.5,430.7578" style="stroke:#181818;stroke-width:1.0;"/><line style="stroke:#181818;stroke-width:1.0;stroke-dasharray:2.0,2.0;" x1="28.5" x2="293.5" y1="430.7578" y2="430.7578"/><text fill="#000000" font-family="sans-serif" font-size="13" lengthAdjust="spacing" textLength="226" x="40.5" y="425.6919">10. Displays confirmation message</text><rect fill="#EEEEEE" height="3" style="stroke:#EEEEEE;stroke-width:1.0;" width="972.5" x="0" y="459.3242"/><line style="stroke:#000000;stroke-width:1.0;" x1="0" x2="972.5" y1="459.3242" y2="459.3242"/><line style="stroke:#000000;stroke-width:1.0;" x1="0" x2="972.5" y1="462.3242" y2="462.3242"/><rect fill="#EEEEEE" height="23.1328" style="stroke:#000000;stroke-width:2.0;" width="132" x="420.25" y="448.7578"/><text fill="#000000" font-family="sans-serif" font-size="13" font-weight="bold" lengthAdjust="spacing" textLength="113" x="426.25" y="464.8247">Alternate Flow</text><polygon fill="#181818" points="282.5,499.0234,292.5,503.0234,282.5,507.0234,286.5,503.0234" style="stroke:#181818;stroke-width:1.0;"/><line style="stroke:#181818;stroke-width:1.0;" x1="23.5" x2="288.5" y1="503.0234" y2="503.0234"/><text fill="#000000" font-family="sans-serif" font-size="13" lengthAdjust="spacing" textLength="158" x="30.5" y="497.9575">Cancels comment or like</text><!--SRC=[RPBDQiCm48JlVeh5zwfD_sjmmIGj54eef7c0ZImdehPMM9k4ldqbMpPnavinyytipWebKmjhfzh4OijQQek6eR0sAP5nWqx18dvC51yDRjNQreJbFtP9h2ijaJMPbMeFMgeaoVCk12GrZJBiW0puu5h_A0TeG0SxoFEaKrszXWaoc0bOua5laRsAQHHELRS2lj5sbkcyzq-3UVhftLFOx9d995uw4dS2lbfgh9zZ7vmg6YSRfeeH0t4luCsmQjsfJfAfTDku7eW1GriPF0XO-NQLE_EEqac76JmAA9mZgRjr8tCT03XgtiNL9z0qy4d0sfOTtVVPACPmnY7mmcaoU1RnlyVeQBmfLS0x5VCkC5qjePyCNloEofGEp8aidAfpwdD7yUn6m48xM-El6yhhWKOv5yB2EobgtxFnMy1xJSUpDp578rLzrkaV]--></g></svg>